/* XPM */
static char * title_4_active_xpm[] = {
"4 22 5 1",
" 	c #000000",
".	c #616161",
"+	c #565656",
"@	c #575757",
"#	c #626262",
"    ",
"....",
"++++",
"++++",
"++++",
"++++",
"++++",
"++++",
"++++",
"++++",
"++++",
"++++",
"++++",
"++++",
"++++",
"++++",
"++++",
"++++",
"++++",
"@+++",
"####",
"    "};
