/* XPM */
static char * title_3_inactive_xpm[] = {
"5 22 2 1",
" 	c #000000",
".	c #515151",
"     ",
".....",
".....",
".....",
".....",
".....",
".....",
".....",
".....",
".....",
".....",
".....",
".....",
".....",
".....",
".....",
".....",
".....",
".....",
".....",
".....",
"....."};
