/* XPM */
static char * title_1_active_xpm[] = {
"2 22 4 1",
" 	c #000000",
".	c #616161",
"+	c #565656",
"@	c #626262",
"  ",
"..",
"++",
"++",
"++",
"++",
"++",
"++",
"++",
"++",
"++",
"++",
"++",
"++",
"++",
"++",
"++",
"++",
"++",
"++",
"@@",
"  "};
