/* XPM */
static char * top_left_active_xpm[] = {
"10 22 9 1",
" 	c None",
".	c #181818",
"+	c #191919",
"@	c #000000",
"#	c #646464",
"$	c #616161",
"%	c #575757",
"&	c #565656",
"*	c #626262",
"     .++++",
"   @@#$$$$",
"  @$$%&&&&",
" @$&&&&&&&",
" @&&&&&&&&",
"@$&&&&&&&&",
"@&&&&&&&&&",
"@&&&&&&&&&",
"@&&&&&&&&&",
"@&&&&&&&&&",
"@&&&&&&&&&",
"@&&&&&&&&&",
"@&&&&&&&&&",
"@&&&&&&&&&",
"@&&&&&&&&&",
"@&&&&&&&&&",
"@&&&&&&&&&",
"@&&&&&&&&&",
"@&&&&&&&&&",
"@&&&&&&&&&",
"@*********",
"@@@@@@@@@@"};
