/* XPM */
static char * top_right_active_xpm[] = {
"10 22 10 1",
" 	c None",
".	c #191919",
"+	c #181818",
"@	c #616161",
"#	c #646464",
"$	c #000000",
"%	c #565656",
"&	c #575757",
"*	c #626262",
"=	c #010101",
"....+     ",
"@@@@#$$   ",
"%%%%&@@$  ",
"%%%%%%%@$ ",
"%%%%%%%%$ ",
"%%%%%%%%@$",
"%%%%%%%%%$",
"%%%%%%%%%$",
"%%%%%%%%%$",
"%%%%%%%%%$",
"%%%%%%%%%$",
"%%%%%%%%%$",
"%%%%%%%%%$",
"%%%%%%%%%$",
"%%%%%%%%%$",
"%%%%%%%%%$",
"%%%%%%%%%$",
"%%%%%%%%%$",
"%%%%%%%%%$",
"%%%%%%%%%$",
"*********$",
"$$$=$$$$$$"};
